# xmcd
#
# Track frame offsets:
#	166
#	12338
#	25618
#	36437
#	54104
#	68308
#	86073
#	100554
#	119603
#	133365
#
# Disc length: 1976 seconds
# Revision: 0
# Processed by: cddbd v1.5.2PL0 Copyright (c) Steve Scherf et al.
# Submitted via: dBpowerAMP V12.0
#
DISCID=7907b60a
DTITLE=Mark Petersen - Sidewalk Rain
DYEAR=2011
DGENRE=Blues 
TTITLE0=Poker, Wine and Women
TTITLE1=Sidewalk Rain
TTITLE2=Two Little Monkeys
TTITLE3=Lost My Dame
TTITLE4=Bite My Lip
TTITLE5=Bonny Lass
TTITLE6=Poke Me Back
TTITLE7=Latin Cricket
TTITLE8=Things I've Learned
TTITLE9=Sweet 302
EXTD=
EXTT0=
EXTT1=
EXTT2=
EXTT3=
EXTT4=
EXTT5=
EXTT6=
EXTT7=
EXTT8=
EXTT9=
PLAYORDER=
